<svg width="24" height="24" viewBox="0 0 24 24" fill="none" xmlns="http://www.w3.org/2000/svg">
<path d="M16.0006 8.00156C17.0613 8.00156 18.0786 7.58005 18.8286 6.82976C19.5786 6.07947 20 5.06185 20 4.00078C20 2.93971 19.5786 1.92209 18.8286 1.1718C18.0786 0.42151 17.0613 0 16.0006 0L8.00176 0C6.94167 0 5.925 0.421263 5.1754 1.17112C4.42581 1.92097 4.00469 2.93799 4.00469 3.99844C4.00469 5.05889 4.42581 6.07591 5.1754 6.82576C5.925 7.57561 6.94167 7.99688 8.00176 7.99688C6.94105 7.99688 5.92378 8.41838 5.17375 9.16868C4.42371 9.91897 4.00234 10.9366 4.00234 11.9977C4.00234 13.0587 4.42371 14.0763 5.17375 14.8266C5.92378 15.5769 6.94105 15.9984 8.00176 15.9984C7.21075 15.998 6.43737 16.2322 5.77941 16.6714C5.12145 17.1106 4.60847 17.7352 4.30534 18.466C4.0022 19.1969 3.92253 20.0013 4.07639 20.7774C4.23026 21.5536 4.61075 22.2667 5.16975 22.8265C5.72875 23.3864 6.44115 23.7678 7.21687 23.9227C7.99259 24.0775 8.79679 23.9987 9.52776 23.6964C10.2587 23.394 10.8837 22.8815 11.3235 22.2239C11.7634 21.5662 11.9984 20.7928 11.9988 20.0016V8.00156H16.0006ZM16.0006 8.00156C15.21 8.00156 14.4372 8.23607 13.7799 8.67542C13.1226 9.11477 12.6103 9.73925 12.3078 10.4699C12.0052 11.2005 11.9261 12.0044 12.0803 12.7801C12.2345 13.5557 12.6152 14.2681 13.1742 14.8273C13.7332 15.3865 14.4454 15.7673 15.2208 15.9216C15.9962 16.0759 16.7998 15.9967 17.5302 15.6941C18.2606 15.3914 18.8848 14.879 19.324 14.2214C19.7632 13.5639 19.9977 12.7908 19.9977 12C19.9975 10.9396 19.5764 9.92264 18.8268 9.17282C18.0772 8.42299 17.0606 8.00169 16.0006 8.00156Z" fill="white"/>
</svg>
