<svg width="24" height="24" viewBox="0 0 24 24" fill="none" xmlns="http://www.w3.org/2000/svg">
<path d="M10.8119 10.8533L3.29415 18.3766V1.64669C3.2911 1.20746 3.11587 0.787381 2.80693 0.47866C2.49798 0.169951 2.08055 -0.00218101 1.64625 3.00843e-05C1.43122 -0.00128102 1.21805 0.0402743 1.01891 0.12234C0.819764 0.204396 0.638572 0.32535 0.48568 0.478272C0.332788 0.631204 0.211206 0.813114 0.127866 1.01359C0.0445262 1.21408 0.00107663 1.42921 0 1.64669V22.3466C0.000856907 22.5638 0.0441308 22.7788 0.127328 22.979C0.210525 23.1793 0.332019 23.361 0.484823 23.5137C0.637627 23.6664 0.818731 23.7871 1.01776 23.8688C1.21679 23.9504 1.42981 23.9917 1.6446 23.9899C2.08021 23.9924 2.49908 23.8204 2.80967 23.5116L11.9967 14.3283L21.187 23.5149C21.4966 23.8257 21.9151 24 22.3512 24C22.7875 24 23.2059 23.8257 23.5155 23.5149C23.6689 23.3631 23.7907 23.1819 23.8739 22.9818C23.9572 22.7818 24 22.5669 24 22.3499C24 22.1329 23.9572 21.918 23.8739 21.718C23.7907 21.5179 23.6689 21.3367 23.5155 21.1849L14.3285 12.0016L23.5139 2.81668C23.6672 2.66489 23.7891 2.48366 23.8722 2.28361C23.9555 2.08355 23.9984 1.86871 23.9984 1.65169C23.9984 1.43467 23.9555 1.21982 23.8722 1.01977C23.7891 0.819725 23.6672 0.638482 23.5139 0.486694C23.2032 0.177973 22.7852 0.00498558 22.3496 0.00498558C21.9141 0.00498558 21.4961 0.177973 21.1854 0.486694L10.8531 10.8233C10.8448 10.8233 10.8382 10.83 10.8333 10.8366L10.8119 10.8566V10.8533Z" fill="white"/>
</svg>
