<svg width="24" height="24" viewBox="0 0 24 24" fill="none" xmlns="http://www.w3.org/2000/svg">
<path d="M5.33328 2.92742C4.53146 1.84426 2.95632 1.67535 1.92912 2.60385C1.04285 3.41991 0.972644 4.79816 1.69 5.76888L6.31774 11.9718L1.66202 18.2311C0.944662 19.2018 1.00114 20.5801 1.90114 21.3962C2.92783 22.3247 4.50348 22.1557 5.3053 21.0726L11.8038 12.3376C11.9584 12.1264 11.9584 11.8313 11.8038 11.6202L5.33328 2.92742Z" fill="white"/>
<path d="M18.6637 2.92742C19.4655 1.84426 21.0406 1.67535 22.0678 2.60385C22.9541 3.41991 23.0243 4.79816 22.307 5.76888L17.6792 11.9718L22.3349 18.2311C23.0523 19.2018 22.9958 20.5801 22.0958 21.3962C21.0691 22.3247 19.4935 22.1557 18.6917 21.0726L12.2074 12.3233C12.0528 12.1122 12.0528 11.8171 12.2074 11.606L18.6637 2.92742Z" fill="white"/>
</svg>
