<svg width="24" height="24" viewBox="0 0 24 24" fill="none" xmlns="http://www.w3.org/2000/svg">
<g clip-path="url(#clip0)">
<path d="M23.9459 18.4066C23.7016 18.9764 22.6691 19.3951 20.7884 19.6871C20.6916 19.8177 20.6114 20.3755 20.4834 20.81C20.4072 21.0709 20.2198 21.2258 19.9149 21.2258L19.901 21.2255C19.4606 21.2255 19.0008 21.0229 18.0798 21.0229C16.8366 21.0229 16.4081 21.3062 15.4429 21.9879C14.4195 22.7116 13.438 23.3363 11.9729 23.2723C10.4894 23.3817 9.25293 22.4797 8.55702 21.9877C7.58605 21.3013 7.15883 21.0229 5.92073 21.0229C5.03648 21.0229 4.47998 21.2442 4.09954 21.2442C3.72112 21.2442 3.57393 21.0135 3.51726 20.8204C3.39055 20.3897 3.31082 19.8237 3.21149 19.6893C2.24216 19.5389 0.056335 19.1576 0.000647512 18.1823C-0.00610248 18.0597 0.0326335 17.939 0.109425 17.8433C0.186217 17.7475 0.295659 17.6835 0.416757 17.6634C3.67846 17.1265 5.14757 13.7775 5.20865 13.6353C5.21212 13.627 5.21591 13.6192 5.21976 13.6111C5.3938 13.2579 5.43276 12.962 5.33521 12.7321C5.09849 12.1745 4.07558 11.9744 3.64523 11.8042C2.53358 11.3651 2.3789 10.8607 2.44466 10.5149C2.5589 9.91322 3.46302 9.54296 3.99163 9.79055C4.40971 9.98654 4.78115 10.0857 5.0954 10.0857C5.3308 10.0857 5.48034 10.0293 5.56227 9.98396C5.46651 8.29946 5.22941 5.89224 5.82885 4.54791C7.41196 0.998628 10.7674 0.722815 11.7575 0.722815C11.8017 0.722815 12.1859 0.718643 12.2314 0.718643C14.6758 0.718643 17.0245 1.97396 18.1715 4.54566C18.7704 5.88863 18.5347 8.28591 18.4385 9.98358C18.5126 10.0245 18.6427 10.0746 18.8415 10.0838C19.1414 10.0704 19.4891 9.97187 19.876 9.79055C20.1613 9.65715 20.5513 9.67519 20.836 9.79327L20.8374 9.79374C21.2816 9.95241 21.5611 10.2726 21.5681 10.6314C21.5767 11.0883 21.1686 11.4829 20.3551 11.8041C20.2558 11.8433 20.1351 11.8817 20.0066 11.9225C19.5474 12.0681 18.8535 12.2883 18.6652 12.7321C18.5678 12.9619 18.6064 13.2576 18.7806 13.6109C18.7846 13.6187 18.7883 13.6269 18.7918 13.635C18.8527 13.777 20.3206 17.1253 23.5838 17.6632C23.8851 17.7128 24.1071 18.0324 23.9459 18.4066Z" fill="black"/>
</g>
<defs>
<clipPath id="clip0">
<rect width="24" height="24" fill="white"/>
</clipPath>
</defs>
</svg>
