<svg width="24" height="24" viewBox="0 0 24 24" fill="none" xmlns="http://www.w3.org/2000/svg">
<path d="M19.3874 22.5141C18.7168 23.1937 16.9218 24 14.5844 24C8.62746 24 7.33547 19.8375 7.33547 17.4094V10.6594H4.99312C4.72191 10.6594 4.5 10.4484 4.5 10.1906V7.00312C4.5 6.66562 4.72191 6.36562 5.05723 6.25312C8.11461 5.23125 9.0762 2.69062 9.21427 0.764062C9.25372 0.248437 9.53481 0 10.0082 0H13.5045C13.7757 0 13.9976 0.210938 13.9976 0.46875V5.86875H18.0905C18.3617 5.86875 18.5836 6.075 18.5836 6.33281V10.1625C18.5836 10.4203 18.3617 10.6313 18.0905 10.6313H13.9779V16.875C13.9779 18.4781 15.1466 19.3875 17.3311 18.5531C17.5678 18.4641 17.7749 18.4031 17.9574 18.45C18.13 18.4922 18.2434 18.6094 18.3223 18.8203L19.4072 21.8344C19.4959 22.0687 19.5699 22.3312 19.3874 22.5141Z" fill="white"/>
</svg>
