<svg width="24" height="24" viewBox="0 0 24 24" fill="none" xmlns="http://www.w3.org/2000/svg">
<path d="M23.4985 6.15992C23.2225 5.11292 22.4092 4.28833 21.3766 4.00849C19.505 3.5 12 3.5 12 3.5C12 3.5 4.49503 3.5 2.62336 4.00849C1.59077 4.28837 0.777523 5.11292 0.501503 6.15992C0 8.05768 0 12.0172 0 12.0172C0 12.0172 0 15.9767 0.501503 17.8744C0.777523 18.9214 1.59077 19.7117 2.62336 19.9915C4.49503 20.5 12 20.5 12 20.5C12 20.5 19.505 20.5 21.3766 19.9915C22.4092 19.7117 23.2225 18.9214 23.4985 17.8744C24 15.9767 24 12.0172 24 12.0172C24 12.0172 24 8.05768 23.4985 6.15992ZM9.54544 15.6121V8.42225L15.8181 12.0173L9.54544 15.6121Z" fill="white"/>
</svg>
